<?xml version="1.0" encoding="UTF-8" standalone="no"?>
<!-- Created with Inkscape (http://www.inkscape.org/) -->

<svg
   width="12.170584mm"
   height="12.170584mm"
   viewBox="0 0 12.170584 12.170583"
   version="1.1"
   id="svg1"
   xml:space="preserve"
   xmlns="http://www.w3.org/2000/svg"
   xmlns:svg="http://www.w3.org/2000/svg"><defs
     id="defs1" /><g
     id="layer1"
     transform="translate(-102.57727,-142.2496)"><rect
       style="fill:#282828;fill-opacity:1;stroke-width:0.264583"
       id="rect1"
       width="12.170584"
       height="12.170584"
       x="102.57727"
       y="142.2496" /><g
       style="fill:currentColor"
       id="g2"
       transform="matrix(0.26458333,0,0,0.26458333,106.70453,145.67445)"><path
         d="m -0.74392984,3.2731189 a 1,1 0 0 1 1,-1 H 14.25607 a 1,1 0 0 1 1,1 V 17.273119 a 1,1 0 0 1 -1,1 H 0.25607016 a 1,1 0 0 1 -1,-1 z m 4.00000004,0 v 6 H 11.25607 v -6 z M 11.25607,11.273119 H 3.2560702 v 6 H 11.25607 Z M 0.25607016,3.2731189 v 2 H 2.2560702 v -2 z m 2.00000004,3 H 0.25607016 v 2 H 2.2560702 Z m -2.00000004,3 V 11.273119 H 2.2560702 V 9.2731189 Z M 2.2560702,12.273119 H 0.25607016 v 2 H 2.2560702 Z m -2.00000004,3 v 2 H 2.2560702 v -2 z M 14.25607,3.2731189 h -2 v 2 h 2 z m -2,3 v 2 h 2 v -2 z m 2,3 h -2 v 2.0000001 h 2 z m -2,3.0000001 v 2 h 2 v -2 z m 2,3 h -2 v 2 h 2 z"
         id="path1-1"
         style="fill:#7f7f7f;fill-opacity:1" /></g></g></svg>
