<?xml version="1.0" encoding="UTF-8" standalone="no"?>
<!-- Created with Inkscape (http://www.inkscape.org/) -->

<svg
   width="3.7041667mm"
   height="3.6764231mm"
   viewBox="0 0 3.7041667 3.6764231"
   version="1.1"
   id="svg1"
   xml:space="preserve"
   xmlns:inkscape="http://www.inkscape.org/namespaces/inkscape"
   xmlns:sodipodi="http://sodipodi.sourceforge.net/DTD/sodipodi-0.dtd"
   xmlns="http://www.w3.org/2000/svg"
   xmlns:svg="http://www.w3.org/2000/svg"><sodipodi:namedview
     id="namedview1"
     pagecolor="#505050"
     bordercolor="#ffffff"
     borderopacity="1"
     inkscape:showpageshadow="0"
     inkscape:pageopacity="0"
     inkscape:pagecheckerboard="1"
     inkscape:deskcolor="#505050"
     inkscape:document-units="mm" /><defs
     id="defs1" /><g
     inkscape:label="Warstwa 1"
     inkscape:groupmode="layer"
     id="layer1"
     transform="translate(-102.8614,-146.451)"><g
       style="fill:currentColor"
       id="g2"
       transform="matrix(0.20725234,0,0,0.20725234,102.39787,145.8485)"><path
         d="m 8,4 a 0.5,0.5 0 0 1 0.5,0.5 v 3 h 3 a 0.5,0.5 0 0 1 0,1 h -3 v 3 a 0.5,0.5 0 0 1 -1,0 v -3 h -3 a 0.5,0.5 0 0 1 0,-1 h 3 v -3 A 0.5,0.5 0 0 1 8,4"
         id="path1-4" /></g><g
       style="fill:currentColor"
       id="g3"
       transform="matrix(0.26458333,0,0,0.26458333,102.59682,146.15866)"><path
         d="M 6,13 C 6,14.105 4.88,15 3.5,15 2.12,15 1,14.105 1,13 1,11.896 2.12,11 3.5,11 4.88,11 6,11.896 6,13 m 9,-2 c 0,1.105 -1.12,2 -2.5,2 C 11.12,13 10,12.105 10,11 10,9.895 11.12,9 12.5,9 13.88,9 15,9.895 15,11"
         id="path1-7" /><path
         fill-rule="evenodd"
         d="M 14,11 V 2 h 1 v 9 z M 6,8.4935893 V 13 H 5 V 8.4935893 Z"
         id="path2-1"
         sodipodi:nodetypes="cccccccccc" /><path
         d="m 6.8497684,2.905 c 0,-0.5135653 0.389009,-0.9436435 0.9,-0.995 L 13.9,1.11 C 14.488859,1.050817 15.000007,1.5131741 15,2.105 V 3 L 6.8497684,4 Z"
         id="path3-4"
         sodipodi:nodetypes="sccsccs" /></g></g></svg>
