<?xml version="1.0" encoding="UTF-8" standalone="no"?>
<!-- Created with Inkscape (http://www.inkscape.org/) -->

<svg
   width="12.170583mm"
   height="12.170591mm"
   viewBox="0 0 12.170583 12.170591"
   version="1.1"
   id="svg1"
   xml:space="preserve"
   inkscape:export-filename="playlist.svg"
   inkscape:export-xdpi="96"
   inkscape:export-ydpi="96"
   xmlns:inkscape="http://www.inkscape.org/namespaces/inkscape"
   xmlns:sodipodi="http://sodipodi.sourceforge.net/DTD/sodipodi-0.dtd"
   xmlns="http://www.w3.org/2000/svg"
   xmlns:svg="http://www.w3.org/2000/svg"><sodipodi:namedview
     id="namedview1"
     pagecolor="#505050"
     bordercolor="#ffffff"
     borderopacity="1"
     inkscape:showpageshadow="0"
     inkscape:pageopacity="0"
     inkscape:pagecheckerboard="1"
     inkscape:deskcolor="#505050"
     inkscape:document-units="mm" /><defs
     id="defs1" /><g
     inkscape:label="Warstwa 1"
     inkscape:groupmode="layer"
     id="layer1"
     transform="translate(-102.57727,-142.2496)"><rect
       style="fill:#282828;fill-opacity:1;stroke-width:0.264583"
       id="rect1"
       width="12.170584"
       height="12.170584"
       x="102.57727"
       y="142.2496"
       inkscape:export-filename="playlist.svg"
       inkscape:export-xdpi="96"
       inkscape:export-ydpi="96" /><g
       style="fill:#7f7f7f;fill-opacity:1"
       id="g1"
       transform="matrix(0.29996294,0,0,0.29996294,105.95825,146.13356)"><path
         d="M 6,13 C 6,14.105 4.88,15 3.5,15 2.12,15 1,14.105 1,13 1,11.896 2.12,11 3.5,11 4.88,11 6,11.896 6,13 m 9,-2 c 0,1.105 -1.12,2 -2.5,2 C 11.12,13 10,12.105 10,11 10,9.895 11.12,9 12.5,9 13.88,9 15,9.895 15,11"
         id="path1"
         style="fill:#7f7f7f;fill-opacity:1" /><path
         fill-rule="evenodd"
         d="M 14,11 V 2 h 1 v 9 z M 6,3 V 13 H 5 V 3 Z"
         id="path2"
         style="fill:#7f7f7f;fill-opacity:1" /><path
         d="M 5,2.905 A 1,1 0 0 1 5.9,1.91 l 8,-0.8 A 1,1 0 0 1 15,2.105 V 3 L 5,4 Z"
         id="path3"
         style="fill:#7f7f7f;fill-opacity:1" /></g></g></svg>
